<svg xmlns="http://www.w3.org/2000/svg" xmlns:xlink="http://www.w3.org/1999/xlink" width="500" zoomAndPan="magnify" viewBox="0 0 375 374.999991" height="500" preserveAspectRatio="xMidYMid meet" version="1.0"><defs><clipPath id="3c8463c7dc"><path d="M 187.613281 -0.222656 C 83.996094 -0.222656 0 83.773438 0 187.386719 C 0 291.003906 83.996094 375 187.613281 375 C 291.226562 375 375.222656 291.003906 375.222656 187.386719 C 375.222656 83.773438 291.226562 -0.222656 187.613281 -0.222656 Z M 187.613281 -0.222656 " clip-rule="nonzero"/></clipPath><clipPath id="c3f966a60b"><path d="M 37.726562 104.558594 L 337.488281 104.558594 L 337.488281 270.308594 L 37.726562 270.308594 Z M 37.726562 104.558594 " clip-rule="nonzero"/></clipPath><clipPath id="75705ed9cf"><path d="M 27.957031 131.25 L 348.167969 131.25 L 348.167969 243.75 L 27.957031 243.75 Z M 27.957031 131.25 " clip-rule="nonzero"/></clipPath><clipPath id="79cea9b7dd"><path d="M 61.078125 75 L 313.921875 75 L 313.921875 295.285156 L 61.078125 295.285156 Z M 61.078125 75 " clip-rule="nonzero"/></clipPath><clipPath id="03fc3a2046"><path d="M 61.078125 117.777344 L 74.777344 117.777344 L 74.777344 260.476562 L 61.078125 260.476562 Z M 61.078125 117.777344 " clip-rule="nonzero"/></clipPath><clipPath id="c65ee15c54"><path d="M 67.925781 117.777344 C 69.742188 117.777344 71.484375 118.5 72.769531 119.78125 C 74.054688 121.066406 74.777344 122.808594 74.777344 124.625 L 74.777344 253.597656 C 74.777344 255.414062 74.054688 257.15625 72.769531 258.441406 C 71.484375 259.722656 69.742188 260.445312 67.925781 260.445312 C 66.109375 260.445312 64.367188 259.722656 63.082031 258.441406 C 61.800781 257.15625 61.078125 255.414062 61.078125 253.597656 L 61.078125 124.625 C 61.078125 122.808594 61.800781 121.066406 63.082031 119.78125 C 64.367188 118.5 66.109375 117.777344 67.925781 117.777344 Z M 67.925781 117.777344 " clip-rule="nonzero"/></clipPath><clipPath id="1c2a5b79da"><path d="M 77.839844 117.777344 L 83.601562 117.777344 L 83.601562 260.457031 L 77.839844 260.457031 Z M 77.839844 117.777344 " clip-rule="nonzero"/></clipPath><clipPath id="a6496040e3"><path d="M 80.71875 117.777344 C 81.484375 117.777344 82.214844 118.082031 82.757812 118.621094 C 83.296875 119.160156 83.601562 119.890625 83.601562 120.65625 L 83.601562 257.566406 C 83.601562 258.328125 83.296875 259.0625 82.757812 259.601562 C 82.214844 260.140625 81.484375 260.445312 80.71875 260.445312 C 79.957031 260.445312 79.222656 260.140625 78.683594 259.601562 C 78.144531 259.0625 77.839844 258.328125 77.839844 257.566406 L 77.839844 120.65625 C 77.839844 119.890625 78.144531 119.160156 78.683594 118.621094 C 79.222656 118.082031 79.957031 117.777344 80.71875 117.777344 Z M 80.71875 117.777344 " clip-rule="nonzero"/></clipPath><clipPath id="506b2f2bcc"><path d="M 86.601562 117.777344 L 92.359375 117.777344 L 92.359375 260.457031 L 86.601562 260.457031 Z M 86.601562 117.777344 " clip-rule="nonzero"/></clipPath><clipPath id="e97422326f"><path d="M 89.480469 117.777344 C 90.242188 117.777344 90.976562 118.082031 91.515625 118.621094 C 92.054688 119.160156 92.359375 119.890625 92.359375 120.65625 L 92.359375 257.566406 C 92.359375 258.328125 92.054688 259.0625 91.515625 259.601562 C 90.976562 260.140625 90.242188 260.445312 89.480469 260.445312 C 88.714844 260.445312 87.984375 260.140625 87.441406 259.601562 C 86.902344 259.0625 86.601562 258.328125 86.601562 257.566406 L 86.601562 120.65625 C 86.601562 119.890625 86.902344 119.160156 87.441406 118.621094 C 87.984375 118.082031 88.714844 117.777344 89.480469 117.777344 Z M 89.480469 117.777344 " clip-rule="nonzero"/></clipPath><clipPath id="105a237b51"><path d="M 104.359375 117.777344 L 125.488281 117.777344 L 125.488281 260.488281 L 104.359375 260.488281 Z M 104.359375 117.777344 " clip-rule="nonzero"/></clipPath><clipPath id="babe5d8a59"><path d="M 114.921875 117.777344 C 117.726562 117.777344 120.414062 118.890625 122.394531 120.871094 C 124.375 122.851562 125.488281 125.539062 125.488281 128.34375 L 125.488281 249.878906 C 125.488281 252.683594 124.375 255.371094 122.394531 257.351562 C 120.414062 259.332031 117.726562 260.445312 114.921875 260.445312 C 112.121094 260.445312 109.433594 259.332031 107.453125 257.351562 C 105.472656 255.371094 104.359375 252.683594 104.359375 249.878906 L 104.359375 128.34375 C 104.359375 125.539062 105.472656 122.851562 107.453125 120.871094 C 109.433594 118.890625 112.121094 117.777344 114.921875 117.777344 Z M 114.921875 117.777344 " clip-rule="nonzero"/></clipPath><clipPath id="c262cacf0a"><path d="M 137.488281 117.777344 L 149.488281 117.777344 L 149.488281 260.464844 L 137.488281 260.464844 Z M 137.488281 117.777344 " clip-rule="nonzero"/></clipPath><clipPath id="08317ab941"><path d="M 143.488281 117.777344 C 145.078125 117.777344 146.605469 118.410156 147.730469 119.535156 C 148.855469 120.660156 149.488281 122.1875 149.488281 123.777344 L 149.488281 254.445312 C 149.488281 256.035156 148.855469 257.5625 147.730469 258.6875 C 146.605469 259.8125 145.078125 260.445312 143.488281 260.445312 C 141.898438 260.445312 140.371094 259.8125 139.246094 258.6875 C 138.121094 257.5625 137.488281 256.035156 137.488281 254.445312 L 137.488281 123.777344 C 137.488281 122.1875 138.121094 120.660156 139.246094 119.535156 C 140.371094 118.410156 141.898438 117.777344 143.488281 117.777344 Z M 143.488281 117.777344 " clip-rule="nonzero"/></clipPath><clipPath id="00ad7f3e2f"><path d="M 152.488281 117.777344 L 164.488281 117.777344 L 164.488281 260.464844 L 152.488281 260.464844 Z M 152.488281 117.777344 " clip-rule="nonzero"/></clipPath><clipPath id="15b10d3136"><path d="M 158.488281 117.777344 C 160.078125 117.777344 161.605469 118.410156 162.730469 119.535156 C 163.855469 120.660156 164.488281 122.1875 164.488281 123.777344 L 164.488281 254.445312 C 164.488281 256.035156 163.855469 257.5625 162.730469 258.6875 C 161.605469 259.8125 160.078125 260.445312 158.488281 260.445312 C 156.898438 260.445312 155.371094 259.8125 154.246094 258.6875 C 153.121094 257.5625 152.488281 256.035156 152.488281 254.445312 L 152.488281 123.777344 C 152.488281 122.1875 153.121094 120.660156 154.246094 119.535156 C 155.371094 118.410156 156.898438 117.777344 158.488281 117.777344 Z M 158.488281 117.777344 " clip-rule="nonzero"/></clipPath><clipPath id="366be24e9e"><path d="M 306.289062 117.777344 L 313.921875 117.777344 L 313.921875 260.457031 L 306.289062 260.457031 Z M 306.289062 117.777344 " clip-rule="nonzero"/></clipPath><clipPath id="ea6949e00f"><path d="M 310.105469 117.777344 C 311.117188 117.777344 312.089844 118.179688 312.804688 118.894531 C 313.519531 119.609375 313.921875 120.582031 313.921875 121.59375 L 313.921875 256.628906 C 313.921875 257.640625 313.519531 258.613281 312.804688 259.328125 C 312.089844 260.042969 311.117188 260.445312 310.105469 260.445312 C 309.09375 260.445312 308.121094 260.042969 307.40625 259.328125 C 306.691406 258.613281 306.289062 257.640625 306.289062 256.628906 L 306.289062 121.59375 C 306.289062 120.582031 306.691406 119.609375 307.40625 118.894531 C 308.121094 118.179688 309.09375 117.777344 310.105469 117.777344 Z M 310.105469 117.777344 " clip-rule="nonzero"/></clipPath><clipPath id="cc0205940f"><path d="M 282.074219 117.777344 L 294.074219 117.777344 L 294.074219 260.464844 L 282.074219 260.464844 Z M 282.074219 117.777344 " clip-rule="nonzero"/></clipPath><clipPath id="d62f2f51f6"><path d="M 288.074219 117.777344 C 289.664062 117.777344 291.191406 118.410156 292.316406 119.535156 C 293.441406 120.660156 294.074219 122.1875 294.074219 123.777344 L 294.074219 254.445312 C 294.074219 256.035156 293.441406 257.5625 292.316406 258.6875 C 291.191406 259.8125 289.664062 260.445312 288.074219 260.445312 C 286.484375 260.445312 284.957031 259.8125 283.832031 258.6875 C 282.707031 257.5625 282.074219 256.035156 282.074219 254.445312 L 282.074219 123.777344 C 282.074219 122.1875 282.707031 120.660156 283.832031 119.535156 C 284.957031 118.410156 286.484375 117.777344 288.074219 117.777344 Z M 288.074219 117.777344 " clip-rule="nonzero"/></clipPath><clipPath id="0d62f1917c"><path d="M 266.988281 117.777344 L 278.988281 117.777344 L 278.988281 260.464844 L 266.988281 260.464844 Z M 266.988281 117.777344 " clip-rule="nonzero"/></clipPath><clipPath id="2140a6239f"><path d="M 272.988281 117.777344 C 274.582031 117.777344 276.105469 118.410156 277.234375 119.535156 C 278.359375 120.660156 278.988281 122.1875 278.988281 123.777344 L 278.988281 254.445312 C 278.988281 256.035156 278.359375 257.5625 277.234375 258.6875 C 276.105469 259.8125 274.582031 260.445312 272.988281 260.445312 C 271.398438 260.445312 269.871094 259.8125 268.746094 258.6875 C 267.621094 257.5625 266.988281 256.035156 266.988281 254.445312 L 266.988281 123.777344 C 266.988281 122.1875 267.621094 120.660156 268.746094 119.535156 C 269.871094 118.410156 271.398438 117.777344 272.988281 117.777344 Z M 272.988281 117.777344 " clip-rule="nonzero"/></clipPath><clipPath id="fe5fba929c"><path d="M 175.613281 117.777344 L 183.121094 117.777344 L 183.121094 260.449219 L 175.613281 260.449219 Z M 175.613281 117.777344 " clip-rule="nonzero"/></clipPath><clipPath id="fbb63c6fec"><path d="M 179.367188 117.777344 C 180.363281 117.777344 181.316406 118.171875 182.023438 118.875 C 182.726562 119.582031 183.121094 120.535156 183.121094 121.53125 L 183.121094 256.691406 C 183.121094 257.6875 182.726562 258.640625 182.023438 259.347656 C 181.316406 260.050781 180.363281 260.445312 179.367188 260.445312 C 178.371094 260.445312 177.417969 260.050781 176.710938 259.347656 C 176.007812 258.640625 175.613281 257.6875 175.613281 256.691406 L 175.613281 121.53125 C 175.613281 120.535156 176.007812 119.582031 176.710938 118.875 C 177.417969 118.171875 178.371094 117.777344 179.367188 117.777344 Z M 179.367188 117.777344 " clip-rule="nonzero"/></clipPath><clipPath id="2e11ded7a4"><path d="M 190.800781 117.777344 L 201.675781 117.777344 L 201.675781 260.457031 L 190.800781 260.457031 Z M 190.800781 117.777344 " clip-rule="nonzero"/></clipPath><clipPath id="853f5e4b52"><path d="M 196.238281 117.777344 C 199.242188 117.777344 201.675781 120.210938 201.675781 123.214844 L 201.675781 255.007812 C 201.675781 258.011719 199.242188 260.445312 196.238281 260.445312 C 193.234375 260.445312 190.800781 258.011719 190.800781 255.007812 L 190.800781 123.214844 C 190.800781 120.210938 193.234375 117.777344 196.238281 117.777344 Z M 196.238281 117.777344 " clip-rule="nonzero"/></clipPath><clipPath id="9c4a8d88bf"><path d="M 204.675781 117.777344 L 209.941406 117.777344 L 209.941406 260.445312 L 204.675781 260.445312 Z M 204.675781 117.777344 " clip-rule="nonzero"/></clipPath><clipPath id="f5f523fa9e"><path d="M 207.308594 117.777344 C 208.761719 117.777344 209.941406 118.957031 209.941406 120.410156 L 209.941406 257.8125 C 209.941406 259.265625 208.761719 260.445312 207.308594 260.445312 C 205.855469 260.445312 204.675781 259.265625 204.675781 257.8125 L 204.675781 120.410156 C 204.675781 118.957031 205.855469 117.777344 207.308594 117.777344 Z M 207.308594 117.777344 " clip-rule="nonzero"/></clipPath><clipPath id="828807499a"><path d="M 251.191406 117.777344 L 257.121094 117.777344 L 257.121094 260.445312 L 251.191406 260.445312 Z M 251.191406 117.777344 " clip-rule="nonzero"/></clipPath><clipPath id="d537614036"><path d="M 254.15625 117.777344 C 255.792969 117.777344 257.121094 119.105469 257.121094 120.742188 L 257.121094 257.480469 C 257.121094 259.117188 255.792969 260.445312 254.15625 260.445312 C 252.519531 260.445312 251.191406 259.117188 251.191406 257.480469 L 251.191406 120.742188 C 251.191406 119.105469 252.519531 117.777344 254.15625 117.777344 Z M 254.15625 117.777344 " clip-rule="nonzero"/></clipPath><clipPath id="058f36d51e"><path d="M 230.667969 118.445312 L 246.929688 118.445312 L 246.929688 261.132812 L 230.667969 261.132812 Z M 230.667969 118.445312 " clip-rule="nonzero"/></clipPath><clipPath id="b86e31bf3a"><path d="M 238.800781 118.445312 C 243.289062 118.445312 246.929688 122.085938 246.929688 126.578125 L 246.929688 252.980469 C 246.929688 257.472656 243.289062 261.113281 238.800781 261.113281 C 234.308594 261.113281 230.667969 257.472656 230.667969 252.980469 L 230.667969 126.578125 C 230.667969 122.085938 234.308594 118.445312 238.800781 118.445312 Z M 238.800781 118.445312 " clip-rule="nonzero"/></clipPath><clipPath id="05b454cb2b"><path d="M 216.34375 117.777344 L 224.265625 117.777344 L 224.265625 260.46875 L 216.34375 260.46875 Z M 216.34375 117.777344 " clip-rule="nonzero"/></clipPath><clipPath id="0d6e6eaad6"><path d="M 220.304688 117.777344 C 222.492188 117.777344 224.265625 119.550781 224.265625 121.738281 L 224.265625 256.484375 C 224.265625 258.671875 222.492188 260.445312 220.304688 260.445312 C 218.117188 260.445312 216.34375 258.671875 216.34375 256.484375 L 216.34375 121.738281 C 216.34375 119.550781 218.117188 117.777344 220.304688 117.777344 Z M 220.304688 117.777344 " clip-rule="nonzero"/></clipPath><clipPath id="b2db473548"><path d="M 132.390625 160.964844 L 263.429688 160.964844 L 263.429688 302.242188 L 132.390625 302.242188 Z M 132.390625 160.964844 " clip-rule="nonzero"/></clipPath><clipPath id="2c6ba83b58"><path d="M 197.910156 160.964844 C 161.722656 160.964844 132.390625 192.554688 132.390625 231.523438 C 132.390625 270.492188 161.722656 302.085938 197.910156 302.085938 C 234.09375 302.085938 263.429688 270.492188 263.429688 231.523438 C 263.429688 192.554688 234.09375 160.964844 197.910156 160.964844 Z M 197.910156 160.964844 " clip-rule="nonzero"/></clipPath><clipPath id="2f54b38872"><path d="M 147.515625 176.828125 L 248.132812 176.828125 L 248.132812 277.445312 L 147.515625 277.445312 Z M 147.515625 176.828125 " clip-rule="nonzero"/></clipPath><clipPath id="7dff8f3c07"><path d="M 197.824219 176.828125 C 170.039062 176.828125 147.515625 199.351562 147.515625 227.136719 C 147.515625 254.917969 170.039062 277.445312 197.824219 277.445312 C 225.609375 277.445312 248.132812 254.917969 248.132812 227.136719 C 248.132812 199.351562 225.609375 176.828125 197.824219 176.828125 Z M 197.824219 176.828125 " clip-rule="nonzero"/></clipPath><clipPath id="fa0318ad5d"><path d="M 147.515625 176.828125 L 248.015625 176.828125 L 248.015625 277.328125 L 147.515625 277.328125 Z M 147.515625 176.828125 " clip-rule="nonzero"/></clipPath><clipPath id="8d3258ac5d"><path d="M 197.820312 176.828125 C 170.039062 176.828125 147.515625 199.347656 147.515625 227.128906 C 147.515625 254.910156 170.039062 277.433594 197.820312 277.433594 C 225.601562 277.433594 248.121094 254.910156 248.121094 227.128906 C 248.121094 199.347656 225.601562 176.828125 197.820312 176.828125 Z M 197.820312 176.828125 " clip-rule="nonzero"/></clipPath><clipPath id="72856a4cc8"><path d="M 168.078125 197.386719 L 227.570312 197.386719 L 227.570312 256.882812 L 168.078125 256.882812 Z M 168.078125 197.386719 " clip-rule="nonzero"/></clipPath><clipPath id="7817d820c0"><path d="M 197.824219 197.386719 C 181.398438 197.386719 168.078125 210.707031 168.078125 227.136719 C 168.078125 243.5625 181.398438 256.882812 197.824219 256.882812 C 214.253906 256.882812 227.570312 243.5625 227.570312 227.136719 C 227.570312 210.707031 214.253906 197.386719 197.824219 197.386719 Z M 197.824219 197.386719 " clip-rule="nonzero"/></clipPath><clipPath id="8c15a5ddcc"><path d="M 222 246 L 289 246 L 289 306 L 222 306 Z M 222 246 " clip-rule="nonzero"/></clipPath><clipPath id="948cfc6b7a"><path d="M 216.761719 262.292969 L 233.765625 241.097656 L 294.121094 289.511719 L 277.121094 310.707031 Z M 216.761719 262.292969 " clip-rule="nonzero"/></clipPath><clipPath id="959f6f073c"><path d="M 225.265625 251.695312 C 229.957031 245.84375 238.507812 244.902344 244.363281 249.597656 L 283.476562 280.972656 C 289.332031 285.667969 290.269531 294.21875 285.574219 300.070312 C 280.878906 305.925781 272.332031 306.863281 266.476562 302.167969 L 227.359375 270.792969 C 221.507812 266.097656 220.570312 257.546875 225.265625 251.695312 Z M 225.265625 251.695312 " clip-rule="nonzero"/></clipPath></defs><g clip-path="url(#3c8463c7dc)"><rect x="-37.5" width="450" fill="#26ff50" y="-37.499999" height="449.999989" fill-opacity="1"/></g><g clip-path="url(#c3f966a60b)"><path stroke-linecap="butt" transform="matrix(0.75, 0, 0, 0.75, 37.726353, 104.556819)" fill="none" stroke-linejoin="miter" d="M 0.000279037 0.00236669 L 399.682597 0.00236669 L 399.682597 221.174256 L 0.000279037 221.174256 Z M 0.000279037 0.00236669 " stroke="#ffffff" stroke-width="12" stroke-opacity="1" stroke-miterlimit="4"/></g><g clip-path="url(#75705ed9cf)"><path fill="#26ff50" d="M 27.957031 131.25 L 348.316406 131.25 L 348.316406 243.75 L 27.957031 243.75 Z M 27.957031 131.25 " fill-opacity="1" fill-rule="nonzero"/></g><g clip-path="url(#79cea9b7dd)"><path fill="#26ff50" d="M 61.078125 75 L 314.0625 75 L 314.0625 295.285156 L 61.078125 295.285156 Z M 61.078125 75 " fill-opacity="1" fill-rule="nonzero"/></g><g clip-path="url(#03fc3a2046)"><g clip-path="url(#c65ee15c54)"><path fill="#ffffff" d="M 61.078125 117.777344 L 74.777344 117.777344 L 74.777344 260.425781 L 61.078125 260.425781 Z M 61.078125 117.777344 " fill-opacity="1" fill-rule="nonzero"/></g></g><g clip-path="url(#1c2a5b79da)"><g clip-path="url(#a6496040e3)"><path fill="#ffffff" d="M 77.839844 117.777344 L 83.601562 117.777344 L 83.601562 260.457031 L 77.839844 260.457031 Z M 77.839844 117.777344 " fill-opacity="1" fill-rule="nonzero"/></g></g><g clip-path="url(#506b2f2bcc)"><g clip-path="url(#e97422326f)"><path fill="#ffffff" d="M 86.601562 117.777344 L 92.359375 117.777344 L 92.359375 260.457031 L 86.601562 260.457031 Z M 86.601562 117.777344 " fill-opacity="1" fill-rule="nonzero"/></g></g><g clip-path="url(#105a237b51)"><g clip-path="url(#babe5d8a59)"><path fill="#ffffff" d="M 104.359375 117.777344 L 125.488281 117.777344 L 125.488281 260.40625 L 104.359375 260.40625 Z M 104.359375 117.777344 " fill-opacity="1" fill-rule="nonzero"/></g></g><g clip-path="url(#c262cacf0a)"><g clip-path="url(#08317ab941)"><path fill="#ffffff" d="M 137.488281 117.777344 L 149.488281 117.777344 L 149.488281 260.464844 L 137.488281 260.464844 Z M 137.488281 117.777344 " fill-opacity="1" fill-rule="nonzero"/></g></g><g clip-path="url(#00ad7f3e2f)"><g clip-path="url(#15b10d3136)"><path fill="#ffffff" d="M 152.488281 117.777344 L 164.488281 117.777344 L 164.488281 260.464844 L 152.488281 260.464844 Z M 152.488281 117.777344 " fill-opacity="1" fill-rule="nonzero"/></g></g><g clip-path="url(#366be24e9e)"><g clip-path="url(#ea6949e00f)"><path fill="#ffffff" d="M 306.289062 117.777344 L 313.921875 117.777344 L 313.921875 260.457031 L 306.289062 260.457031 Z M 306.289062 117.777344 " fill-opacity="1" fill-rule="nonzero"/></g></g><g clip-path="url(#cc0205940f)"><g clip-path="url(#d62f2f51f6)"><path fill="#ffffff" d="M 282.074219 117.777344 L 294.074219 117.777344 L 294.074219 260.464844 L 282.074219 260.464844 Z M 282.074219 117.777344 " fill-opacity="1" fill-rule="nonzero"/></g></g><g clip-path="url(#0d62f1917c)"><g clip-path="url(#2140a6239f)"><path fill="#ffffff" d="M 266.988281 117.777344 L 278.988281 117.777344 L 278.988281 260.464844 L 266.988281 260.464844 Z M 266.988281 117.777344 " fill-opacity="1" fill-rule="nonzero"/></g></g><g clip-path="url(#fe5fba929c)"><g clip-path="url(#fbb63c6fec)"><path fill="#ffffff" d="M 175.613281 117.777344 L 183.121094 117.777344 L 183.121094 260.449219 L 175.613281 260.449219 Z M 175.613281 117.777344 " fill-opacity="1" fill-rule="nonzero"/></g></g><g clip-path="url(#2e11ded7a4)"><g clip-path="url(#853f5e4b52)"><path fill="#ffffff" d="M 190.800781 117.777344 L 201.679688 117.777344 L 201.679688 260.457031 L 190.800781 260.457031 Z M 190.800781 117.777344 " fill-opacity="1" fill-rule="nonzero"/></g></g><g clip-path="url(#9c4a8d88bf)"><g clip-path="url(#f5f523fa9e)"><path fill="#ffffff" d="M 204.675781 117.777344 L 209.941406 117.777344 L 209.941406 260.445312 L 204.675781 260.445312 Z M 204.675781 117.777344 " fill-opacity="1" fill-rule="nonzero"/></g></g><g clip-path="url(#828807499a)"><g clip-path="url(#d537614036)"><path fill="#ffffff" d="M 251.191406 117.777344 L 257.121094 117.777344 L 257.121094 260.445312 L 251.191406 260.445312 Z M 251.191406 117.777344 " fill-opacity="1" fill-rule="nonzero"/></g></g><g clip-path="url(#058f36d51e)"><g clip-path="url(#b86e31bf3a)"><path fill="#ffffff" d="M 230.667969 118.445312 L 246.929688 118.445312 L 246.929688 261.132812 L 230.667969 261.132812 Z M 230.667969 118.445312 " fill-opacity="1" fill-rule="nonzero"/></g></g><g clip-path="url(#05b454cb2b)"><g clip-path="url(#0d6e6eaad6)"><path fill="#ffffff" d="M 216.34375 117.777344 L 224.265625 117.777344 L 224.265625 260.4375 L 216.34375 260.4375 Z M 216.34375 117.777344 " fill-opacity="1" fill-rule="nonzero"/></g></g><g clip-path="url(#b2db473548)"><g clip-path="url(#2c6ba83b58)"><path fill="#26ff50" d="M 132.390625 160.964844 L 263.429688 160.964844 L 263.429688 302.242188 L 132.390625 302.242188 Z M 132.390625 160.964844 " fill-opacity="1" fill-rule="nonzero"/></g></g><g clip-path="url(#2f54b38872)"><g clip-path="url(#7dff8f3c07)"><path fill="#ffffff" d="M 147.515625 176.828125 L 248.132812 176.828125 L 248.132812 277.445312 L 147.515625 277.445312 Z M 147.515625 176.828125 " fill-opacity="1" fill-rule="nonzero"/></g></g><g clip-path="url(#fa0318ad5d)"><g clip-path="url(#8d3258ac5d)"><path stroke-linecap="butt" transform="matrix(0.75, 0, 0, 0.75, 147.517144, 176.827167)" fill="none" stroke-linejoin="miter" d="M 67.070895 0.00127762 C 30.029226 0.00127762 -0.00202588 30.027321 -0.00202588 67.06899 C -0.00202588 104.110659 30.029226 134.141911 67.070895 134.141911 C 104.112564 134.141911 134.138608 104.110659 134.138608 67.06899 C 134.138608 30.027321 104.112564 0.00127762 67.070895 0.00127762 Z M 67.070895 0.00127762 " stroke="#26ff50" stroke-width="4" stroke-opacity="1" stroke-miterlimit="4"/></g></g><g clip-path="url(#72856a4cc8)"><g clip-path="url(#7817d820c0)"><path fill="#26ff50" d="M 168.078125 197.386719 L 227.570312 197.386719 L 227.570312 256.882812 L 168.078125 256.882812 Z M 168.078125 197.386719 " fill-opacity="1" fill-rule="nonzero"/></g></g><g clip-path="url(#8c15a5ddcc)"><g clip-path="url(#948cfc6b7a)"><g clip-path="url(#959f6f073c)"><path fill="#ffffff" d="M 216.761719 262.292969 L 233.765625 241.097656 L 294.039062 289.445312 L 277.039062 310.640625 Z M 216.761719 262.292969 " fill-opacity="1" fill-rule="nonzero"/></g></g></g></svg>